<?xml version="1.0" encoding="UTF-8"?>
<svg version="1.1" xmlns="http://www.w3.org/2000/svg" width="491" height="114">
<path d="M0 0 C2.96853415 2.40627568 5.5251573 4.68168225 7.5625 7.9375 C7.5625 8.9275 7.5625 9.9175 7.5625 10.9375 C8.5525 10.9375 9.5425 10.9375 10.5625 10.9375 C11.53246893 12.91099024 12.48785474 14.89164997 13.4375 16.875 C13.97117187 17.97714844 14.50484375 19.07929687 15.0546875 20.21484375 C20.07815323 31.7856069 21.10294136 48.74920793 16.68359375 60.6328125 C13.62483126 66.92086082 10.2402882 73.6874292 5.5625 78.9375 C4.5725 78.9375 3.5825 78.9375 2.5625 78.9375 C1.9025 80.5875 1.2425 82.2375 0.5625 83.9375 C-0.7575 83.9375 -2.0775 83.9375 -3.4375 83.9375 C-3.4375 84.9275 -3.4375 85.9175 -3.4375 86.9375 C-18.93306022 94.77404355 -34.2561916 98.81208594 -51.44921875 93.984375 C-59.10423784 91.30261668 -66.72499113 87.80868967 -72.4375 81.9375 C-72.4375 80.9475 -72.4375 79.9575 -72.4375 78.9375 C-73.0975 78.9375 -73.7575 78.9375 -74.4375 78.9375 C-74.4375 78.2775 -74.4375 77.6175 -74.4375 76.9375 C-75.4275 76.9375 -76.4175 76.9375 -77.4375 76.9375 C-86.23724933 65.60603625 -88.57727343 52.84536245 -89.4375 38.9375 C-89.53328339 39.55280075 -89.62906677 40.1681015 -89.72775269 40.80204773 C-90.72659923 47.21087571 -91.73370786 53.61836647 -92.74560547 60.02514648 C-93.12207306 62.41576433 -93.49643884 64.80671416 -93.86865234 67.19799805 C-94.4042916 70.63680204 -94.94749932 74.07433795 -95.4921875 77.51171875 C-95.739189 79.11354256 -95.739189 79.11354256 -95.99118042 80.74772644 C-96.23120285 82.24871635 -96.23120285 82.24871635 -96.47607422 83.7800293 C-96.61375214 84.65717087 -96.75143005 85.53431244 -96.89328003 86.43803406 C-97.4375 88.9375 -97.4375 88.9375 -99.4375 93.9375 C-110.3275 93.9375 -121.2175 93.9375 -132.4375 93.9375 C-134.6875 84.9375 -134.6875 84.9375 -135.21533203 81.72460938 C-135.39529221 80.64439514 -135.39529221 80.64439514 -135.57888794 79.5423584 C-135.69980804 78.79619263 -135.82072815 78.05002686 -135.9453125 77.28125 C-136.14083206 76.09964294 -136.14083206 76.09964294 -136.34030151 74.89416504 C-136.75078384 72.40910622 -137.15671907 69.92333035 -137.5625 67.4375 C-137.842146 65.73953358 -138.12209115 64.0416164 -138.40234375 62.34375 C-139.08418581 58.20889402 -139.76195449 54.07338916 -140.4375 49.9375 C-140.42444824 50.71673828 -140.41139648 51.49597656 -140.39794922 52.29882812 C-140.26656331 65.8378337 -142.60070299 77.05607607 -149.4375 88.9375 C-150.4275 88.9375 -151.4175 88.9375 -152.4375 88.9375 C-152.458125 89.535625 -152.47875 90.13375 -152.5 90.75 C-153.4375 92.9375 -153.4375 92.9375 -156.6875 94.625 C-166.08682806 97.91476482 -175.99689142 98.49682227 -185.18359375 94.25 C-193.02342899 89.68468866 -196.15746197 83.55506309 -198.4375 74.9375 C-201.45752369 59.02991086 -201.90210991 39.44324746 -193.375 25.1875 C-191.4375 22.9375 -191.4375 22.9375 -188.4375 21.9375 C-188.1075 20.9475 -187.7775 19.9575 -187.4375 18.9375 C-179.28312973 14.28452918 -169.58963875 13.37226198 -160.56640625 15.66796875 C-150.64730061 19.27893589 -146.96569671 25.88110659 -142.4375 34.9375 C-143.4275 27.5125 -143.4275 27.5125 -144.4375 19.9375 C-140.67197905 18.05473953 -136.15119225 18.4565955 -132 18.25 C-130.54883789 18.16008789 -130.54883789 18.16008789 -129.06835938 18.06835938 C-128.13958984 18.02130859 -127.21082031 17.97425781 -126.25390625 17.92578125 C-125.40256104 17.87977783 -124.55121582 17.83377441 -123.67407227 17.78637695 C-121.4375 17.9375 -121.4375 17.9375 -118.4375 19.9375 C-117.92919922 22.47192383 -117.92919922 22.47192383 -117.7421875 25.64453125 C-117.66613281 26.78857422 -117.59007812 27.93261719 -117.51171875 29.11132812 C-117.44597656 30.31208984 -117.38023437 31.51285156 -117.3125 32.75 C-117.16662715 35.11083695 -117.01828125 37.47152269 -116.8671875 39.83203125 C-116.80772949 40.88237549 -116.74827148 41.93271973 -116.68701172 43.01489258 C-116.45562075 45.72524608 -116.02987105 48.28527934 -115.4375 50.9375 C-115.32156494 49.92324951 -115.20562988 48.90899902 -115.08618164 47.86401367 C-114.65517944 44.10094059 -114.21995232 40.33836614 -113.78344727 36.57592773 C-113.59511897 34.94748003 -113.40793657 33.31889938 -113.22192383 31.69018555 C-112.95434935 29.34908726 -112.68265707 27.00849808 -112.41015625 24.66796875 C-112.2866555 23.57563179 -112.2866555 23.57563179 -112.16065979 22.46122742 C-111.80931243 19.47295061 -111.39228121 16.80184363 -110.4375 13.9375 C-102.8475 13.9375 -95.2575 13.9375 -87.4375 13.9375 C-86.9425 18.3925 -86.9425 18.3925 -86.4375 22.9375 C-86.05078125 22.15503906 -85.6640625 21.37257812 -85.265625 20.56640625 C-84.74484375 19.55449219 -84.2240625 18.54257812 -83.6875 17.5 C-83.17703125 16.49066406 -82.6665625 15.48132813 -82.140625 14.44140625 C-80.4375 11.9375 -80.4375 11.9375 -78.234375 11.08984375 C-77.64140625 11.03957031 -77.0484375 10.98929688 -76.4375 10.9375 C-76.334375 10.36 -76.23125 9.7825 -76.125 9.1875 C-75.32853535 6.58088842 -74.24684723 4.9639689 -72.4375 2.9375 C-71.7775 2.9375 -71.1175 2.9375 -70.4375 2.9375 C-70.4375 1.9475 -70.4375 0.9575 -70.4375 -0.0625 C-68.18964627 -1.73701452 -66.03576905 -3.15931988 -63.625 -4.5625 C-62.59113159 -5.1646936 -62.59113159 -5.1646936 -61.53637695 -5.77905273 C-41.68894977 -16.99214496 -17.75785819 -13.84598219 0 0 Z M-172.4375 32.9375 C-172.911875 33.96875 -173.38625 35 -173.875 36.0625 C-174.14183594 36.64257812 -174.40867188 37.22265625 -174.68359375 37.8203125 C-178.84514596 49.50715861 -177.58941777 68.68120907 -172.4375 79.9375 C-169.2283127 78.41735865 -167.70850027 77.57355052 -166.29223633 74.24951172 C-164.91145572 68.89913476 -165.10396831 63.60583253 -165.12182617 58.10693359 C-165.12498114 56.07464674 -165.10150557 54.04382567 -165.07617188 52.01171875 C-165.07267151 44.94798902 -165.33824567 39.33226751 -168.4375 32.9375 C-169.7575 32.9375 -171.0775 32.9375 -172.4375 32.9375 Z " fill="#FDC317" transform="translate(319.4375,15.0625)"/>
<path d="M0 0 C0.73347656 -0.03222656 1.46695313 -0.06445312 2.22265625 -0.09765625 C5.51258824 -0.10354164 7.67068148 0.01211973 10.3671875 2.00488281 C12.03125 3.6640625 12.03125 3.6640625 14.5 6.625 C16.4730842 5.6601879 18.40358389 4.68268126 20.2890625 3.5546875 C25.6798214 0.45786856 30.34320408 -0.21174575 36.5 0.625 C41.73335273 2.36945091 43.90549567 4.80663481 46.5 9.625 C48.08953345 14.37798715 48.74625155 18.47647176 48.72705078 23.47827148 C48.72734283 24.12302933 48.72763489 24.76778717 48.72793579 25.43208313 C48.72655626 27.53689626 48.71106128 29.64134342 48.6953125 31.74609375 C48.69157745 33.21582343 48.6887328 34.68555562 48.68673706 36.1552887 C48.6791393 40.00384523 48.65952447 43.85224829 48.6373291 47.70074463 C48.61678708 51.63576177 48.60771755 55.57080395 48.59765625 59.50585938 C48.57627448 67.2123173 48.54112433 74.9186175 48.5 82.625 C40.91 82.625 33.32 82.625 25.5 82.625 C24.84 62.495 24.18 42.365 23.5 21.625 C22.51 21.625 21.52 21.625 20.5 21.625 C19.65521256 26.08193779 19.32810703 30.36955287 19.21875 34.90234375 C19.20034058 35.59074844 19.18193115 36.27915314 19.16296387 36.98841858 C19.10468933 39.1796989 19.05181401 41.37105811 19 43.5625 C18.74097674 54.27807443 18.2790061 64.93314133 17.5 75.625 C9.91 75.625 2.32 75.625 -5.5 75.625 C-5.56058594 73.211875 -5.62117188 70.79875 -5.68359375 68.3125 C-5.74580255 65.91599664 -5.80901401 63.51952162 -5.87231445 61.12304688 C-5.91502328 59.48635499 -5.95672713 57.8496365 -5.99731445 56.21289062 C-6.26807263 45.32908035 -6.73690045 34.48629419 -7.5 23.625 C-8.49 23.295 -9.48 22.965 -10.5 22.625 C-10.83 40.445 -11.16 58.265 -11.5 76.625 C-19.75 76.625 -28 76.625 -36.5 76.625 C-36.5 51.875 -36.5 27.125 -36.5 1.625 C-30.23 1.625 -23.96 1.625 -17.5 1.625 C-16.51 2.615 -15.52 3.605 -14.5 4.625 C-13.6853125 3.97789063 -12.870625 3.33078125 -12.03125 2.6640625 C-8.11520621 0.06485738 -4.59989385 -0.04042086 0 0 Z " fill="#FDC32F" transform="translate(69.5,30.375)"/>
<path d="M0 0 C6.93 0 13.86 0 21 0 C24.91878077 7.83756153 23.32059519 20.29836126 23.5625 28.9375 C23.59426834 30.02363586 23.59426834 30.02363586 23.62667847 31.13171387 C24.37618957 57.73953542 24.08637322 84.38451385 24 111 C21.66748563 111.34015835 19.33426131 111.67222896 17 112 C15.700625 112.185625 14.40125 112.37125 13.0625 112.5625 C9.02027473 113.06876696 5.07068819 113.07269086 1 113 C-0.53077706 108.00147412 -2.06069641 103.0026868 -3.58984375 98.00366211 C-4.10946846 96.3053489 -4.62932181 94.60710563 -5.14941406 92.90893555 C-5.89969982 90.4590082 -6.6491455 88.00882518 -7.3984375 85.55859375 C-7.6287265 84.80726669 -7.8590155 84.05593964 -8.09628296 83.28184509 C-8.31636017 82.56162674 -8.53643738 81.84140839 -8.76318359 81.09936523 C-8.95415619 80.47537338 -9.14512878 79.85138153 -9.34188843 79.20848083 C-10.25427275 76.14671537 -11.12231639 73.07189264 -12 70 C-12 82.21 -12 94.42 -12 107 C-19.59 107 -27.18 107 -35 107 C-35.75990396 82.28955146 -36.0943316 57.59621483 -36.0625 32.875 C-36.06164398 32.20544155 -36.06078796 31.5358831 -36.05990601 30.846035 C-36.04852956 22.56399649 -36.028474 14.28199677 -36 6 C-33.49502996 4.74751498 -31.79146726 4.88625594 -28.9921875 4.90234375 C-28.00605469 4.90556641 -27.01992188 4.90878906 -26.00390625 4.91210938 C-24.97136719 4.92048828 -23.93882812 4.92886719 -22.875 4.9375 C-21.31458984 4.94426758 -21.31458984 4.94426758 -19.72265625 4.95117188 C-17.14838038 4.96298048 -14.57421854 4.97944925 -12 5 C-9.08500181 12.28749549 -6.99281306 19.76051826 -4.875 27.3125 C-4.16520907 29.82975228 -3.45365406 32.3465016 -2.7421875 34.86328125 C-2.4313623 35.96969971 -2.12053711 37.07611816 -1.80029297 38.21606445 C-1.2424266 40.1566838 -0.638531 42.08440701 0 44 C0 29.48 0 14.96 0 0 Z " fill="#DF0903" transform="translate(375,0)"/>
<path d="M0 0 C7.59 0 15.18 0 23 0 C23.2966984 10.54314299 22.23270854 20.17803589 20.3125 30.5 C20.03883531 32.01913754 19.76647682 33.53851091 19.49536133 35.05810547 C19.0796692 37.3871763 18.66313658 39.71605672 18.24205017 42.04415894 C17.28804554 47.32673253 16.38664342 52.61592566 15.5234375 57.9140625 C15.35188393 58.96451752 15.35188393 58.96451752 15.17686462 60.03619385 C14.63444267 63.36398812 14.09637818 66.69242263 13.56176758 70.02148438 C13.36993896 71.19259766 13.17811035 72.36371094 12.98046875 73.5703125 C12.81442139 74.59914551 12.64837402 75.62797852 12.47729492 76.68798828 C12 79 12 79 11 80 C8.55169574 80.08843793 6.13179401 80.11528752 3.68359375 80.09765625 C2.95253922 80.0962413 2.22148468 80.09482635 1.46827698 80.09336853 C-0.87535632 80.08775408 -3.21889539 80.07519922 -5.5625 80.0625 C-7.14778508 80.05748686 -8.73307166 80.05292363 -10.31835938 80.04882812 C-14.2122761 80.03777997 -18.10612205 80.02050572 -22 80 C-23.24669537 75.29701911 -24.26006249 70.86583352 -24.625 66 C-24.69976562 65.05125 -24.77453125 64.1025 -24.8515625 63.125 C-24.90054688 62.42375 -24.94953125 61.7225 -25 61 C-24.34 61.66 -23.68 62.32 -23 63 C-22.49526388 53.77088791 -24.05870444 45.12229259 -25.875 36.125 C-26.41812148 33.378394 -26.95563743 30.63070887 -27.4921875 27.8828125 C-27.62244324 27.22073792 -27.75269897 26.55866333 -27.88690186 25.87652588 C-29.10680521 19.60861337 -30.07441953 13.31731135 -31 7 C-24.4 7 -17.8 7 -11 7 C-10.5625 14.75 -10.5625 14.75 -10.43188477 17.17089844 C-10.22444368 21.07152953 -10.22444368 21.07152953 -9.49560547 24.89672852 C-8.88782714 27.47604395 -8.8193135 29.89386494 -8.75390625 32.54296875 C-8.70459961 34.15461914 -8.70459961 34.15461914 -8.65429688 35.79882812 C-8.59363045 38.03832258 -8.53627901 40.27790957 -8.48242188 42.51757812 C-8.2792394 48.94657821 -7.6244201 54.77196019 -6 61 C-3.94648773 57.9197316 -3.68767666 56.83598067 -3.40234375 53.2890625 C-3.32306641 52.37382813 -3.24378906 51.45859375 -3.16210938 50.515625 C-3.08798828 49.56171875 -3.01386719 48.6078125 -2.9375 47.625 C-2.782293 45.74199274 -2.62481261 43.8591712 -2.46484375 41.9765625 C-2.399021 41.14205566 -2.33319824 40.30754883 -2.26538086 39.44775391 C-1.99154268 36.9219935 -1.53412482 34.48261437 -1 32 C-1.99 32 -2.98 32 -4 32 C-3.86722656 30.82824219 -3.73445313 29.65648437 -3.59765625 28.44921875 C-3.4190085 26.86200867 -3.2406418 25.27476694 -3.0625 23.6875 C-2.9704126 22.86822021 -2.8783252 22.04894043 -2.78344727 21.20483398 C-2.18577347 15.83106369 -1.65952941 10.45794473 -1.24609375 5.06640625 C-1 3 -1 3 0 0 Z " fill="#FDB220" transform="translate(209,29)"/>
<path d="M0 0 C0.33 0.66 0.66 1.32 1 2 C1.5775 2.2475 2.155 2.495 2.75 2.75 C5.35259417 4.19588565 6.76196192 6.04653467 8.578125 8.3671875 C10.10427111 10.1197399 11.73385035 11.4449022 13.5625 12.875 C18.32394204 16.91910689 20.56909049 20.82509128 21.4140625 27.05078125 C21.82899504 36.34308618 19.46709562 42.6895568 13.6875 49.875 C7.60826347 54.68183819 1.10639874 57.41922996 -6.72265625 57.2734375 C-13.812762 56.42213835 -19.78927221 53.26297103 -24.52734375 47.96484375 C-30.04749707 40.59975855 -31.27531976 33.09652858 -30 24 C-27.91716753 17.64592122 -23.97434303 13.63596353 -18.76953125 9.60546875 C-16.86462087 7.87717258 -15.99473815 6.35166302 -15 4 C-12.53199953 5.15173355 -10.95216435 6.04783565 -9 8 C-8.68115234 10.06298828 -8.68115234 10.06298828 -8.5859375 12.5703125 C-8.54726563 13.46621094 -8.50859375 14.36210938 -8.46875 15.28515625 C-8.4378125 16.22230469 -8.406875 17.15945312 -8.375 18.125 C-8.33632813 19.06988281 -8.29765625 20.01476562 -8.2578125 20.98828125 C-8.16338654 23.32532375 -8.07781606 25.66235501 -8 28 C-6.02 28.33 -4.04 28.66 -2 29 C-0.63160637 26.26321275 -0.78365182 23.95735576 -0.68359375 20.8984375 C-0.64169922 19.68671875 -0.59980469 18.475 -0.55664062 17.2265625 C-0.51732422 15.95554687 -0.47800781 14.68453125 -0.4375 13.375 C-0.39431641 12.09625 -0.35113281 10.8175 -0.30664062 9.5 C-0.20030114 6.33344652 -0.09827167 3.16681247 0 0 Z " fill="#FE8E05" transform="translate(289,26)"/>
<path d="M0 0 C2.99404565 1.36153069 5.24828197 2.92612421 7.6875 5.125 C8.37457031 5.74117187 9.06164062 6.35734375 9.76953125 6.9921875 C10.50558594 7.65476562 11.24164063 8.31734375 12 9 C12.80824219 9.70382813 13.61648438 10.40765625 14.44921875 11.1328125 C15.24972656 11.83148438 16.05023438 12.53015625 16.875 13.25 C17.61492187 13.89453125 18.35484375 14.5390625 19.1171875 15.203125 C22.00967712 17.96359227 22.95938454 19.53698379 23.3125 23.5625 C22.95120601 34.58196672 17.26408487 45.84722389 10 54 C9.01 54 8.02 54 7 54 C6.34 55.65 5.68 57.3 5 59 C3.68 59 2.36 59 1 59 C1 59.99 1 60.98 1 62 C-13.59819679 68.98079185 -13.59819679 68.98079185 -19 70 C-19.74378906 70.1753125 -20.48757813 70.350625 -21.25390625 70.53125 C-24.2431488 70.94291408 -26.10201833 70.90271918 -29 70 C-32.71644724 66.86121237 -35.72476768 63.35168653 -38.75 59.55664062 C-40.4901784 57.38957471 -42.33767064 55.32359904 -44.1875 53.25 C-45.1265467 52.16800709 -46.06474835 51.08527495 -47 50 C-43.17180188 48.72393396 -41.7601347 49.71593931 -38 51 C-27.04902855 52.36707265 -17.26740125 49.58493716 -8 43.6875 C-4.32214998 40.76524788 -2.07951569 37.16664865 0 33 C0.32097656 32.36707031 0.64195312 31.73414062 0.97265625 31.08203125 C3.10799692 25.94728181 3.30598326 20.86271536 3.375 15.375 C3.38893799 14.65836182 3.40287598 13.94172363 3.41723633 13.20336914 C3.37207294 8.11632924 2.26017951 4.55623488 0 0 Z " fill="#FD8F03" transform="translate(315,40)"/>
<path d="M0 0 C0.5 3.0625 0.5 3.0625 0 7 C-1.60546875 8.70703125 -1.60546875 8.70703125 -3.6875 10.375 C-9.16039248 14.76886749 -12.39603037 19.05439513 -13.4765625 26.11328125 C-13.85836245 34.66359072 -12.06464423 41.34341729 -6.390625 47.84375 C-1.34216843 52.56799376 4.00677359 54.656515 10.8125 55.4375 C16.18159334 55.23549451 21.1110434 53.08008402 26 51 C26.72703125 50.70867187 27.4540625 50.41734375 28.203125 50.1171875 C30.47698396 48.70344041 30.98109874 47.44806808 32 45 C32.35320312 44.37222656 32.70640625 43.74445313 33.0703125 43.09765625 C36.75804806 35.98169244 37.38432905 28.46397425 35.41015625 20.671875 C33.18461426 15.46185042 29.28771011 12.40656921 24.828125 9.0546875 C23 7 23 7 22.671875 3.8203125 C23 1 23 1 24 0 C27.82576937 -0.54653848 30.30472126 -0.12878025 33.5 1.9375 C37.69830057 5.20697301 40.38391269 9.42184721 43 14 C43.54140625 14.9178125 44.0828125 15.835625 44.640625 16.78125 C46.25464801 20.60295966 46.53572002 23.97789236 46.5 28.0625 C46.49572998 28.8047583 46.49145996 29.5470166 46.48706055 30.31176758 C46.23259813 38.68744762 43.75358627 46.59056616 38.8125 53.4375 C29.67540134 61.76241211 19.50701903 65.67727149 7.2109375 65.34765625 C-1.75402936 64.37699682 -9.95718576 59.85871099 -15.72265625 52.9296875 C-22.5883534 43.24686154 -24.78178134 32.73518054 -23 21 C-20.43034505 12.76392644 -15.62660903 6.44755022 -9 1 C-6.04335481 -0.4783226 -3.25770263 -0.06032783 0 0 Z " fill="#FDF8ED" transform="translate(273,27)"/>
<path d="M0 0 C2.75 -0.3125 2.75 -0.3125 6 0 C10.98368445 4.41412051 12.75837229 10.8953875 13.26107788 17.35452271 C13.34623352 21.34546204 13.33810129 25.32532681 13.29296875 29.31640625 C13.28736283 30.78327497 13.28309745 32.25014937 13.28010559 33.71702576 C13.26873501 37.54920376 13.23933665 41.38103233 13.20599365 45.21307373 C13.17512323 49.13483963 13.16156425 53.05666284 13.14648438 56.97851562 C13.11445793 64.65252034 13.0617555 72.32616639 13 80 C5.41 80 -2.18 80 -10 80 C-10.99 49.805 -10.99 49.805 -12 19 C-12.99 19 -13.98 19 -15 19 C-15.84478744 23.45693779 -16.17189297 27.74455287 -16.28125 32.27734375 C-16.29965942 32.96574844 -16.31806885 33.65415314 -16.33703613 34.36341858 C-16.39531067 36.5546989 -16.44818599 38.74605811 -16.5 40.9375 C-16.75902326 51.65307443 -17.2209939 62.30814133 -18 73 C-25.26 73 -32.52 73 -40 73 C-40 55.84 -40 38.68 -40 21 C-39.67 21 -39.34 21 -39 21 C-39 37.5 -39 54 -39 71 C-32.73 71 -26.46 71 -20 71 C-20.02094727 69.54182861 -20.04189453 68.08365723 -20.06347656 66.58129883 C-20.1359171 61.16749912 -20.18181505 55.75374219 -20.21972656 50.33959961 C-20.23983265 47.99707839 -20.26712166 45.6546073 -20.30175781 43.31225586 C-20.35031841 39.94372177 -20.37297922 36.57585169 -20.390625 33.20703125 C-20.41127014 32.16102249 -20.43191528 31.11501373 -20.45318604 30.03730774 C-20.45542401 22.77325462 -20.45542401 22.77325462 -18.13574219 18.8347168 C-16 17 -16 17 -13.4375 16.4375 C-11 17 -11 17 -9.36894226 18.68548584 C-7.6808365 21.53961987 -7.63710344 23.29130888 -7.65942383 26.59472656 C-7.65976372 28.27601654 -7.65976372 28.27601654 -7.66011047 29.99127197 C-7.67559433 31.19555847 -7.69107819 32.39984497 -7.70703125 33.640625 C-7.71127609 34.87794373 -7.71552094 36.11526245 -7.71989441 37.39007568 C-7.73383746 40.67162541 -7.76076914 43.95273056 -7.79400635 47.23413086 C-7.82475406 50.58573307 -7.83815397 53.93735439 -7.85351562 57.2890625 C-7.88660015 63.85957122 -7.93839158 70.42969931 -8 77 C-2.06 77 3.88 77 10 77 C9.93694616 68.90646421 9.86142186 60.81333386 9.76428509 52.72014523 C9.71966585 48.96164556 9.68039163 45.20325218 9.65356445 41.44458008 C9.62744646 37.81336698 9.58698539 34.18256473 9.53681374 30.55160713 C9.52020212 29.17027481 9.50865243 27.78887152 9.50238609 26.40745354 C9.46621035 19.16191177 9.33826157 13.47166392 6 7 C6 5.68 6 4.36 6 3 C5.195625 2.87625 4.39125 2.7525 3.5625 2.625 C2.2940625 2.315625 2.2940625 2.315625 1 2 C0.505 1.01 0.505 1.01 0 0 Z " fill="#FCD262" transform="translate(105,33)"/>
<path d="M0 0 C6.27 0 12.54 0 19 0 C20 1 20 1 20.0625 4.5625 C20.041875 5.696875 20.02125 6.83125 20 8 C20.66 8 21.32 8 22 8 C21.34 9.65 20.68 11.3 20 13 C19.01 13 18.02 13 17 13 C17 9.7 17 6.4 17 3 C12.38 3 7.76 3 3 3 C3 26.1 3 49.2 3 73 C8.94 73 14.88 73 21 73 C20.97905273 71.54706543 20.95810547 70.09413086 20.93652344 68.59716797 C20.86401459 63.19638968 20.8181601 57.79565426 20.78027344 52.39453125 C20.76018291 50.05884562 20.73290539 47.72321013 20.69824219 45.38769531 C20.64961309 42.02656669 20.62700508 38.66610425 20.609375 35.3046875 C20.58872986 34.26384003 20.56808472 33.22299255 20.54681396 32.15060425 C20.54497443 26.1802728 20.82160441 22.44340813 25 18 C28.25 17.625 28.25 17.625 31 18 C31 19.32 31 20.64 31 22 C29.35 21.67 27.7 21.34 26 21 C25.67 38.82 25.34 56.64 25 75 C16.75 75 8.5 75 0 75 C0 50.25 0 25.5 0 0 Z " fill="#FDCD55" transform="translate(33,32)"/>
<path d="M0 0 C0.50830078 2.53442383 0.50830078 2.53442383 0.6953125 5.70703125 C0.77136719 6.85107422 0.84742188 7.99511719 0.92578125 9.17382812 C0.99152344 10.37458984 1.05726563 11.57535156 1.125 12.8125 C1.27087285 15.17333695 1.41921875 17.53402269 1.5703125 19.89453125 C1.62977051 20.94487549 1.68922852 21.99521973 1.75048828 23.07739258 C1.98187925 25.78774608 2.40762895 28.34777934 3 31 C3.33 29.35 3.66 27.7 4 26 C4.99 26 5.98 26 7 26 C6.75114188 30.25158682 6.47213338 34.50067019 6.1875 38.75 C6.11724609 39.9565625 6.04699219 41.163125 5.97460938 42.40625 C5.89404297 43.56640625 5.81347656 44.7265625 5.73046875 45.921875 C5.66239014 46.99018555 5.59431152 48.05849609 5.52416992 49.15917969 C4.95774725 52.22899537 4.06316166 53.70167186 2 56 C-2.76046494 48.85930259 -1.34947264 38.18791383 -1.60546875 29.89648438 C-1.64285156 28.81302734 -1.68023437 27.72957031 -1.71875 26.61328125 C-1.74904297 25.63141846 -1.77933594 24.64955566 -1.81054688 23.63793945 C-1.97987524 21.28021655 -2.4123839 19.27616812 -3 17 C-3.0693244 14.23811597 -3.09394997 11.50980431 -3.0625 8.75 C-3.041875 6.1925 -3.02125 3.635 -3 1 C-9.6 1 -16.2 1 -23 1 C-22.60167969 2.82402344 -22.20335937 4.64804687 -21.79296875 6.52734375 C-13.35869355 45.34254785 -13.35869355 45.34254785 -14 59 C-19.3095286 53.20778698 -19.58616263 43.92655761 -20.7265625 36.4453125 C-20.87910492 35.46255341 -21.03164734 34.47979431 -21.18881226 33.46725464 C-21.50815143 31.40519671 -21.82572095 29.34286401 -22.14160156 27.28027344 C-22.6267939 24.11329075 -23.11763069 20.94722132 -23.609375 17.78125 C-23.91959872 15.77348814 -24.22950589 13.76567733 -24.5390625 11.7578125 C-24.68590485 10.80891144 -24.83274719 9.86001038 -24.98403931 8.88235474 C-25.11772919 8.00739349 -25.25141907 7.13243225 -25.38916016 6.23095703 C-25.50748199 5.46010773 -25.62580383 4.68925842 -25.74771118 3.89505005 C-26 2 -26 2 -26 0 C-23.14529726 -1.42735137 -20.49054088 -1.34972999 -17.3125 -1.5625 C-16.11238281 -1.64628906 -14.91226563 -1.73007812 -13.67578125 -1.81640625 C-3.48788927 -2.32525952 -3.48788927 -2.32525952 0 0 Z " fill="#FDC758" transform="translate(201,35)"/>
<path d="M0 0 C2.5 0.25 2.5 0.25 4.5 2.25 C4.75878906 4.99975586 4.75878906 4.99975586 4.765625 8.46484375 C4.76820313 9.70814453 4.77078125 10.95144531 4.7734375 12.23242188 C4.76570313 13.53759766 4.75796875 14.84277344 4.75 16.1875 C4.75773437 17.48880859 4.76546875 18.79011719 4.7734375 20.13085938 C4.77085937 21.37544922 4.76828125 22.62003906 4.765625 23.90234375 C4.76336914 25.04695068 4.76111328 26.19155762 4.75878906 27.37084961 C4.5 30.25 4.5 30.25 2.5 33.25 C-3.375 32.375 -3.375 32.375 -4.5 31.25 C-4.71789186 27.13422411 -4.68579188 23.01535077 -4.68530273 18.89428711 C-4.68748734 16.82449736 -4.70563491 14.75524207 -4.72460938 12.68554688 C-4.72654297 11.38810547 -4.72847656 10.09066406 -4.73046875 8.75390625 C-4.73457764 7.55580322 -4.73868652 6.3577002 -4.74291992 5.12329102 C-4.43010972 1.42332789 -3.75305667 0.37530567 0 0 Z " fill="#FEF4E8" transform="translate(284.5,22.75)"/>
<path d="M0 0 C6.93 0 13.86 0 21 0 C21 0.66 21 1.32 21 2 C19.95199219 2.06058594 18.90398437 2.12117187 17.82421875 2.18359375 C16.44529952 2.26801738 15.06639395 2.35266447 13.6875 2.4375 C12.65206055 2.49647461 12.65206055 2.49647461 11.59570312 2.55664062 C8.52838465 2.74927415 5.93031848 3.02322717 3 4 C1.78130071 6.50447516 1.78130071 6.50447516 1 9 C1.66 9 2.32 9 3 9 C3.80965067 15.6473 4.29100123 22.24759195 4.5625 28.9375 C4.6049585 29.95714844 4.64741699 30.97679688 4.69116211 32.02734375 C5.14309823 44.01592686 5.09489623 56.00511675 5 68 C2.6508938 66.19562547 2.04273634 65.23671477 1.50805664 62.27514648 C1.45512451 61.17243408 1.40219238 60.06972168 1.34765625 58.93359375 C1.28336426 57.6791748 1.21907227 56.42475586 1.15283203 55.13232422 C1.09986756 53.75495902 1.04898054 52.37751262 1 51 C0.97282898 50.30062317 0.94565796 49.60124634 0.91766357 48.88067627 C0.74629433 44.38347402 0.61245393 39.8859314 0.49731445 35.38696289 C0.43765179 33.06839878 0.37250274 30.75003605 0.30664062 28.43164062 C0.04691169 18.95059198 -0.0407067 9.4846617 0 0 Z " fill="#F14B1D" transform="translate(375,0)"/>
<path d="M0 0 C0.33 0 0.66 0 1 0 C1.05534912 0.76143311 1.11069824 1.52286621 1.16772461 2.30737305 C1.42108359 5.76766086 1.67924193 9.22757452 1.9375 12.6875 C2.02451172 13.88568359 2.11152344 15.08386719 2.20117188 16.31835938 C2.28818359 17.47529297 2.37519531 18.63222656 2.46484375 19.82421875 C2.543396 20.88729248 2.62194824 21.95036621 2.70288086 23.0456543 C2.97530438 25.754444 3.41373047 28.34353331 4 31 C4.33 29.35 4.66 27.7 5 26 C5.99 26 6.98 26 8 26 C7.75114188 30.25158682 7.47213338 34.50067019 7.1875 38.75 C7.11724609 39.9565625 7.04699219 41.163125 6.97460938 42.40625 C6.89404297 43.56640625 6.81347656 44.7265625 6.73046875 45.921875 C6.66239014 46.99018555 6.59431152 48.05849609 6.52416992 49.15917969 C5.95774725 52.22899537 5.06316166 53.70167186 3 56 C-1.0366536 49.9450196 -0.13513514 42.2980737 -0.09765625 35.25390625 C-0.0962413 34.24279282 -0.09482635 33.23167938 -0.09336853 32.18992615 C-0.08779961 28.98075319 -0.07525287 25.77165164 -0.0625 22.5625 C-0.05748098 20.37825622 -0.05291878 18.19401134 -0.04882812 16.00976562 C-0.03784037 10.67315298 -0.02113336 5.3365816 0 0 Z " fill="#FDC14D" transform="translate(200,35)"/>
<path d="M0 0 C0.928125 0.0825 1.85625 0.165 2.8125 0.25 C2.8125 1.57 2.8125 2.89 2.8125 4.25 C1.1625 3.92 -0.4875 3.59 -2.1875 3.25 C-2.8475 20.74 -3.5075 38.23 -4.1875 56.25 C-4.8475 56.25 -5.5075 56.25 -6.1875 56.25 C-6.26351651 48.91771072 -6.31608578 41.58552293 -6.35229492 34.25292969 C-6.36738855 31.75809939 -6.38786548 29.26329565 -6.41381836 26.76855469 C-6.4501754 23.18417814 -6.46722078 19.60015218 -6.48046875 16.015625 C-6.49595261 14.89883362 -6.51143646 13.78204224 -6.52738953 12.63140869 C-6.52761612 11.59063171 -6.52784271 10.54985474 -6.52807617 9.47753906 C-6.53473801 8.56264709 -6.54139984 7.64775513 -6.54826355 6.70513916 C-5.90031195 2.29557134 -4.47368826 0.35087751 0 0 Z " fill="#FCD574" transform="translate(61.1875,49.75)"/>
<path d="M0 0 C7.59 0 15.18 0 23 0 C23.13392857 14.19642857 23.13392857 14.19642857 22 20 C21.34 20 20.68 20 20 20 C20 14.39 20 8.78 20 3 C14.06 3 8.12 3 2 3 C1.67 7.62 1.34 12.24 1 17 C0.67 17 0.34 17 0 17 C0 11.39 0 5.78 0 0 Z " fill="#FDC964" transform="translate(209,29)"/>
<path d="M0 0 C6.27 0 12.54 0 19 0 C19 2.31 19 4.62 19 7 C19.66 7 20.32 7 21 7 C20.34 8.65 19.68 10.3 19 12 C18.01 12 17.02 12 16 12 C16.33 8.37 16.66 4.74 17 1 C11.72 1 6.44 1 1 1 C1 24.76 1 48.52 1 73 C0.67 73 0.34 73 0 73 C0 48.91 0 24.82 0 0 Z " fill="#FBD572" transform="translate(34,33)"/>
<path d="M0 0 C3 2 3 2 3.74609375 5.34375 C4.26416322 11.08795887 3.61342769 16.77856464 3.0625 22.5 C2.96259766 23.60859375 2.86269531 24.7171875 2.75976562 25.859375 C2.514072 28.57370457 2.26063764 31.28707161 2 34 C1.34 34 0.68 34 0 34 C0 22.78 0 11.56 0 0 Z " fill="#E53F1C" transform="translate(359,52)"/>
<path d="M0 0 C2.85972602 2.52975764 4.88317349 5.25249766 6.9375 8.4375 C9.32250498 12.11514127 11.76714187 15.05239405 15 18 C12.76171875 18.73046875 12.76171875 18.73046875 10 19 C7.83203125 17.48828125 7.83203125 17.48828125 5.8125 15.3125 C5.13832031 14.60738281 4.46414062 13.90226562 3.76953125 13.17578125 C0.14909189 8.72415935 -0.22112446 5.74923591 0 0 Z " fill="#FDD262" transform="translate(123,90)"/>
<path d="M0 0 C7.59 0 15.18 0 23 0 C23.13392857 14.19642857 23.13392857 14.19642857 22 20 C21.34 20 20.68 20 20 20 C19.94619422 17.20807795 19.90642331 14.4171859 19.875 11.625 C19.85824219 10.8309375 19.84148437 10.036875 19.82421875 9.21875 C19.80664527 7.14507985 19.89664832 5.07116759 20 3 C20.66 2.34 21.32 1.68 22 1 C11.11 1.495 11.11 1.495 0 2 C0 1.34 0 0.68 0 0 Z " fill="#FDC251" transform="translate(209,29)"/>
<path d="M0 0 C6.93 0 13.86 0 21 0 C21 0.66 21 1.32 21 2 C19.95199219 2.06058594 18.90398437 2.12117187 17.82421875 2.18359375 C16.44529952 2.26801738 15.06639395 2.35266447 13.6875 2.4375 C12.65206055 2.49647461 12.65206055 2.49647461 11.59570312 2.55664062 C8.52838465 2.74927415 5.93031848 3.02322717 3 4 C2.67 4.66 2.34 5.32 2 6 C1.34 6 0.68 6 0 6 C0 4.02 0 2.04 0 0 Z " fill="#F43617" transform="translate(375,0)"/>
<path d="M0 0 C1.4540625 0.0309375 1.4540625 0.0309375 2.9375 0.0625 C2.9375 1.3825 2.9375 2.7025 2.9375 4.0625 C1.2875 3.7325 -0.3625 3.4025 -2.0625 3.0625 C-2.0625 5.0425 -2.0625 7.0225 -2.0625 9.0625 C-2.3925 9.0625 -2.7225 9.0625 -3.0625 9.0625 C-3.65982819 6.29985711 -4.0625 3.90217231 -4.0625 1.0625 C-3.0625 0.0625 -3.0625 0.0625 0 0 Z " fill="#FCD062" transform="translate(61.0625,49.9375)"/>
<path d="M0 0 C1.2684375 0.12375 1.2684375 0.12375 2.5625 0.25 C3.2225 1.24 3.8825 2.23 4.5625 3.25 C3.9025 3.25 3.2425 3.25 2.5625 3.25 C2.2325 3.91 1.9025 4.57 1.5625 5.25 C1.5625 4.26 1.5625 3.27 1.5625 2.25 C0.5725 2.25 -0.4175 2.25 -1.4375 2.25 C-1.7675 3.24 -2.0975 4.23 -2.4375 5.25 C-3.4275 5.25 -4.4175 5.25 -5.4375 5.25 C-3.04846606 0.31266319 -3.04846606 0.31266319 0 0 Z " fill="#FDD361" transform="translate(91.4375,49.75)"/>
</svg>
